<svg 
width="450" height="240" 
version="1.1" baseProfile="full"
     xmlns="http://www.w3.org/2000/svg"><g transform="translate(40,40)"><line x1="0" y1="0" x2="0" y2="180" stroke-width="0.5" stroke="black"/><text x="0" dy="-1.3em" class="graph-grid-text" text-anchor="middle">0</text><line x1="33.63636363636363" y1="0" x2="33.63636363636363" y2="180" stroke-width="0.5" stroke="black"/><text x="33.63636363636363" dy="-1.3em" class="graph-grid-text" text-anchor="middle">1</text><line x1="67.27272727272727" y1="0" x2="67.27272727272727" y2="180" stroke-width="0.5" stroke="black"/><text x="67.27272727272727" dy="-1.3em" class="graph-grid-text" text-anchor="middle">2</text><line x1="100.9090909090909" y1="0" x2="100.9090909090909" y2="180" stroke-width="0.5" stroke="black"/><text x="100.9090909090909" dy="-1.3em" class="graph-grid-text" text-anchor="middle">3</text><line x1="134.54545454545453" y1="0" x2="134.54545454545453" y2="180" stroke-width="0.5" stroke="black"/><text x="134.54545454545453" dy="-1.3em" class="graph-grid-text" text-anchor="middle">4</text><line x1="168.18181818181816" y1="0" x2="168.18181818181816" y2="180" stroke-width="0.5" stroke="black"/><text x="168.18181818181816" dy="-1.3em" class="graph-grid-text" text-anchor="middle">5</text><line x1="201.8181818181818" y1="0" x2="201.8181818181818" y2="180" stroke-width="0.5" stroke="black"/><text x="201.8181818181818" dy="-1.3em" class="graph-grid-text" text-anchor="middle">6</text><line x1="235.45454545454544" y1="0" x2="235.45454545454544" y2="180" stroke-width="0.5" stroke="black"/><text x="235.45454545454544" dy="-1.3em" class="graph-grid-text" text-anchor="middle">7</text><line x1="269.09090909090907" y1="0" x2="269.09090909090907" y2="180" stroke-width="0.5" stroke="black"/><text x="269.09090909090907" dy="-1.3em" class="graph-grid-text" text-anchor="middle">8</text><line x1="302.7272727272727" y1="0" x2="302.7272727272727" y2="180" stroke-width="0.5" stroke="black"/><text x="302.7272727272727" dy="-1.3em" class="graph-grid-text" text-anchor="middle">9</text><line x1="336.3636363636363" y1="0" x2="336.3636363636363" y2="180" stroke-width="0.5" stroke="black"/><text x="336.3636363636363" dy="-1.3em" class="graph-grid-text" text-anchor="middle">10</text><line x1="369.99999999999994" y1="0" x2="369.99999999999994" y2="180" stroke-width="0.5" stroke="black"/><text x="369.99999999999994" dy="-1.3em" class="graph-grid-text" text-anchor="middle">11</text><line x1="0" y1="0" x2="370" y2="0" stroke-width="0.5" stroke="black"/><text dx="-1.3em" dy=".35em" y="0" class="graph-grid-text" text-anchor="end">0</text><line x1="0" y1="36" x2="370" y2="36" stroke-width="0.5" stroke="black"/><text dx="-1.3em" dy=".35em" y="36" class="graph-grid-text" text-anchor="end">1</text><line x1="0" y1="72" x2="370" y2="72" stroke-width="0.5" stroke="black"/><text dx="-1.3em" dy=".35em" y="72" class="graph-grid-text" text-anchor="end">2</text><line x1="0" y1="108" x2="370" y2="108" stroke-width="0.5" stroke="black"/><text dx="-1.3em" dy=".35em" y="108" class="graph-grid-text" text-anchor="end">3</text><line x1="0" y1="144" x2="370" y2="144" stroke-width="0.5" stroke="black"/><text dx="-1.3em" dy=".35em" y="144" class="graph-grid-text" text-anchor="end">4</text><line x1="0" y1="180" x2="370" y2="180" stroke-width="0.5" stroke="black"/><text dx="-1.3em" dy=".35em" y="180" class="graph-grid-text" text-anchor="end">5</text><line x1="235.45454545454544" y1="0" x2="168.18181818181816" y2="36" stroke-width="1.5" stroke="black"/><line x1="168.18181818181816" y1="36" x2="33.63636363636363" y2="72" stroke-width="1.5" stroke="black"/><line x1="33.63636363636363" y1="72" x2="0" y2="108" stroke-width="1.5" stroke="black"/><line x1="33.63636363636363" y1="72" x2="134.54545454545453" y2="108" stroke-width="1.5" stroke="black"/><line x1="134.54545454545453" y1="108" x2="100.9090909090909" y2="144" stroke-width="1.5" stroke="black"/><line x1="100.9090909090909" y1="144" x2="67.27272727272727" y2="180" stroke-width="1.5" stroke="black"/><line x1="168.18181818181816" y1="36" x2="201.8181818181818" y2="72" stroke-width="1.5" stroke="black"/><line x1="235.45454545454544" y1="0" x2="369.99999999999994" y2="36" stroke-width="1.5" stroke="black"/><line x1="369.99999999999994" y1="36" x2="269.09090909090907" y2="72" stroke-width="1.5" stroke="black"/><line x1="269.09090909090907" y1="72" x2="336.3636363636363" y2="108" stroke-width="1.5" stroke="black"/><line x1="336.3636363636363" y1="108" x2="302.7272727272727" y2="144" stroke-width="1.5" stroke="black"/><g transform="translate(0,108)"><circle cx="0" cy="0" r="13.454545454545453" fill="#eeeeee" stroke-width="1.5" stroke="black"/><text dy=".3em" text-anchor="middle" class="graph-node-text">a</text></g><g transform="translate(33.63636363636363,72)"><circle cx="0" cy="0" r="13.454545454545453" fill="#eeeeee" stroke-width="1.5" stroke="black"/><text dy=".3em" text-anchor="middle" class="graph-node-text">c</text></g><g transform="translate(134.54545454545453,108)"><circle cx="0" cy="0" r="13.454545454545453" fill="#eeeeee" stroke-width="1.5" stroke="black"/><text dy=".3em" text-anchor="middle" class="graph-node-text">h</text></g><g transform="translate(100.9090909090909,144)"><circle cx="0" cy="0" r="13.454545454545453" fill="#eeeeee" stroke-width="1.5" stroke="black"/><text dy=".3em" text-anchor="middle" class="graph-node-text">g</text></g><g transform="translate(67.27272727272727,180)"><circle cx="0" cy="0" r="13.454545454545453" fill="#eeeeee" stroke-width="1.5" stroke="black"/><text dy=".3em" text-anchor="middle" class="graph-node-text">e</text></g><g transform="translate(168.18181818181816,36)"><circle cx="0" cy="0" r="13.454545454545453" fill="#eeeeee" stroke-width="1.5" stroke="black"/><text dy=".3em" text-anchor="middle" class="graph-node-text">k</text></g><g transform="translate(201.8181818181818,72)"><circle cx="0" cy="0" r="13.454545454545453" fill="#eeeeee" stroke-width="1.5" stroke="black"/><text dy=".3em" text-anchor="middle" class="graph-node-text">m</text></g><g transform="translate(235.45454545454544,0)"><circle cx="0" cy="0" r="13.454545454545453" fill="#eeeeee" stroke-width="1.5" stroke="black"/><text dy=".3em" text-anchor="middle" class="graph-node-text">n</text></g><g transform="translate(269.09090909090907,72)"><circle cx="0" cy="0" r="13.454545454545453" fill="#eeeeee" stroke-width="1.5" stroke="black"/><text dy=".3em" text-anchor="middle" class="graph-node-text">p</text></g><g transform="translate(369.99999999999994,36)"><circle cx="0" cy="0" r="13.454545454545453" fill="#eeeeee" stroke-width="1.5" stroke="black"/><text dy=".3em" text-anchor="middle" class="graph-node-text">u</text></g><g transform="translate(336.3636363636363,108)"><circle cx="0" cy="0" r="13.454545454545453" fill="#eeeeee" stroke-width="1.5" stroke="black"/><text dy=".3em" text-anchor="middle" class="graph-node-text">s</text></g><g transform="translate(302.7272727272727,144)"><circle cx="0" cy="0" r="13.454545454545453" fill="#eeeeee" stroke-width="1.5" stroke="black"/><text dy=".3em" text-anchor="middle" class="graph-node-text">q</text></g></g></svg>
