<svg width="460" height="220"
version="1.1" baseProfile="full"
     xmlns="http://www.w3.org/2000/svg">
<g transform="translate(40,40)"><line x1="0" y1="0" x2="0" y2="140" stroke-width="0.5" stroke="black"/><text x="0" dy="-1.3em" class="graph-grid-text" text-anchor="middle">0</text><line x1="16.818181818181817" y1="0" x2="16.818181818181817" y2="140" stroke-width="0.5" stroke="black"/><line x1="33.63636363636363" y1="0" x2="33.63636363636363" y2="140" stroke-width="0.5" stroke="black"/><text x="33.63636363636363" dy="-1.3em" class="graph-grid-text" text-anchor="middle">2</text><line x1="50.45454545454545" y1="0" x2="50.45454545454545" y2="140" stroke-width="0.5" stroke="black"/><line x1="67.27272727272727" y1="0" x2="67.27272727272727" y2="140" stroke-width="0.5" stroke="black"/><line x1="84.09090909090908" y1="0" x2="84.09090909090908" y2="140" stroke-width="0.5" stroke="black"/><line x1="100.9090909090909" y1="0" x2="100.9090909090909" y2="140" stroke-width="0.5" stroke="black"/><text x="100.9090909090909" dy="-1.3em" class="graph-grid-text" text-anchor="middle">6</text><line x1="117.72727272727272" y1="0" x2="117.72727272727272" y2="140" stroke-width="0.5" stroke="black"/><line x1="134.54545454545453" y1="0" x2="134.54545454545453" y2="140" stroke-width="0.5" stroke="black"/><line x1="151.36363636363635" y1="0" x2="151.36363636363635" y2="140" stroke-width="0.5" stroke="black"/><line x1="168.18181818181816" y1="0" x2="168.18181818181816" y2="140" stroke-width="0.5" stroke="black"/><text x="168.18181818181816" dy="-1.3em" class="graph-grid-text" text-anchor="middle">10</text><line x1="184.99999999999997" y1="0" x2="184.99999999999997" y2="140" stroke-width="0.5" stroke="black"/><line x1="201.8181818181818" y1="0" x2="201.8181818181818" y2="140" stroke-width="0.5" stroke="black"/><line x1="218.63636363636363" y1="0" x2="218.63636363636363" y2="140" stroke-width="0.5" stroke="black"/><line x1="235.45454545454544" y1="0" x2="235.45454545454544" y2="140" stroke-width="0.5" stroke="black"/><text x="235.45454545454544" dy="-1.3em" class="graph-grid-text" text-anchor="middle">14</text><line x1="252.27272727272725" y1="0" x2="252.27272727272725" y2="140" stroke-width="0.5" stroke="black"/><line x1="269.09090909090907" y1="0" x2="269.09090909090907" y2="140" stroke-width="0.5" stroke="black"/><line x1="285.9090909090909" y1="0" x2="285.9090909090909" y2="140" stroke-width="0.5" stroke="black"/><line x1="302.7272727272727" y1="0" x2="302.7272727272727" y2="140" stroke-width="0.5" stroke="black"/><text x="302.7272727272727" dy="-1.3em" class="graph-grid-text" text-anchor="middle">18</text><line x1="319.5454545454545" y1="0" x2="319.5454545454545" y2="140" stroke-width="0.5" stroke="black"/><line x1="336.3636363636363" y1="0" x2="336.3636363636363" y2="140" stroke-width="0.5" stroke="black"/><line x1="353.18181818181813" y1="0" x2="353.18181818181813" y2="140" stroke-width="0.5" stroke="black"/><line x1="369.99999999999994" y1="0" x2="369.99999999999994" y2="140" stroke-width="0.5" stroke="black"/><text x="369.99999999999994" dy="-1.3em" class="graph-grid-text" text-anchor="middle">22</text><line x1="0" y1="0" x2="370" y2="0" stroke-width="0.5" stroke="black"/><text dx="-1.3em" dy=".35em" y="0" class="graph-grid-text" text-anchor="end">0</text><line x1="0" y1="35" x2="370" y2="35" stroke-width="0.5" stroke="black"/><text dx="-1.3em" dy=".35em" y="35" class="graph-grid-text" text-anchor="end">1</text><line x1="0" y1="70" x2="370" y2="70" stroke-width="0.5" stroke="black"/><text dx="-1.3em" dy=".35em" y="70" class="graph-grid-text" text-anchor="end">2</text><line x1="0" y1="105" x2="370" y2="105" stroke-width="0.5" stroke="black"/><text dx="-1.3em" dy=".35em" y="105" class="graph-grid-text" text-anchor="end">3</text><line x1="0" y1="140" x2="370" y2="140" stroke-width="0.5" stroke="black"/><text dx="-1.3em" dy=".35em" y="140" class="graph-grid-text" text-anchor="end">4</text><line x1="235.45454545454544" y1="0" x2="100.9090909090909" y2="35" stroke-width="1.5" stroke="black"/><line x1="100.9090909090909" y1="35" x2="33.63636363636363" y2="70" stroke-width="1.5" stroke="black"/><line x1="33.63636363636363" y1="70" x2="0" y2="105" stroke-width="1.5" stroke="black"/><line x1="33.63636363636363" y1="70" x2="67.27272727272727" y2="105" stroke-width="1.5" stroke="black"/><line x1="67.27272727272727" y1="105" x2="50.45454545454545" y2="140" stroke-width="1.5" stroke="black"/><line x1="67.27272727272727" y1="105" x2="84.09090909090908" y2="140" stroke-width="1.5" stroke="black"/><line x1="100.9090909090909" y1="35" x2="168.18181818181816" y2="70" stroke-width="1.5" stroke="black"/><line x1="235.45454545454544" y1="0" x2="369.99999999999994" y2="35" stroke-width="1.5" stroke="black"/><line x1="369.99999999999994" y1="35" x2="302.7272727272727" y2="70" stroke-width="1.5" stroke="black"/><line x1="302.7272727272727" y1="70" x2="336.3636363636363" y2="105" stroke-width="1.5" stroke="black"/><g transform="translate(0,105)"><circle cx="0" cy="0" r="14" fill="#eeeeee" stroke-width="1.5" stroke="black"/><text dy=".3em" text-anchor="middle" class="graph-node-text">a</text></g><g transform="translate(33.63636363636363,70)"><circle cx="0" cy="0" r="14" fill="#eeeeee" stroke-width="1.5" stroke="black"/><text dy=".3em" text-anchor="middle" class="graph-node-text">c</text></g><g transform="translate(84.09090909090908,140)"><circle cx="0" cy="0" r="14" fill="#eeeeee" stroke-width="1.5" stroke="black"/><text dy=".3em" text-anchor="middle" class="graph-node-text">g</text></g><g transform="translate(67.27272727272727,105)"><circle cx="0" cy="0" r="14" fill="#eeeeee" stroke-width="1.5" stroke="black"/><text dy=".3em" text-anchor="middle" class="graph-node-text">e</text></g><g transform="translate(50.45454545454545,140)"><circle cx="0" cy="0" r="14" fill="#eeeeee" stroke-width="1.5" stroke="black"/><text dy=".3em" text-anchor="middle" class="graph-node-text">d</text></g><g transform="translate(100.9090909090909,35)"><circle cx="0" cy="0" r="14" fill="#eeeeee" stroke-width="1.5" stroke="black"/><text dy=".3em" text-anchor="middle" class="graph-node-text">k</text></g><g transform="translate(168.18181818181816,70)"><circle cx="0" cy="0" r="14" fill="#eeeeee" stroke-width="1.5" stroke="black"/><text dy=".3em" text-anchor="middle" class="graph-node-text">m</text></g><g transform="translate(235.45454545454544,0)"><circle cx="0" cy="0" r="14" fill="#eeeeee" stroke-width="1.5" stroke="black"/><text dy=".3em" text-anchor="middle" class="graph-node-text">n</text></g><g transform="translate(302.7272727272727,70)"><circle cx="0" cy="0" r="14" fill="#eeeeee" stroke-width="1.5" stroke="black"/><text dy=".3em" text-anchor="middle" class="graph-node-text">p</text></g><g transform="translate(369.99999999999994,35)"><circle cx="0" cy="0" r="14" fill="#eeeeee" stroke-width="1.5" stroke="black"/><text dy=".3em" text-anchor="middle" class="graph-node-text">u</text></g><g transform="translate(336.3636363636363,105)"><circle cx="0" cy="0" r="14" fill="#eeeeee" stroke-width="1.5" stroke="black"/><text dy=".3em" text-anchor="middle" class="graph-node-text">q</text></g></g>
     </svg>
