<svg width="510" height="220"
version="1.1" baseProfile="full"
     xmlns="http://www.w3.org/2000/svg"><g transform="translate(40,40)"><line x1="0" y1="0" x2="0" y2="140" stroke-width="0.5" stroke="black"/><text x="0" dy="-1.3em" class="graph-grid-text" text-anchor="middle">0</text><line x1="19.130434782608695" y1="0" x2="19.130434782608695" y2="140" stroke-width="0.5" stroke="black"/><line x1="38.26086956521739" y1="0" x2="38.26086956521739" y2="140" stroke-width="0.5" stroke="black"/><line x1="57.391304347826086" y1="0" x2="57.391304347826086" y2="140" stroke-width="0.5" stroke="black"/><line x1="76.52173913043478" y1="0" x2="76.52173913043478" y2="140" stroke-width="0.5" stroke="black"/><line x1="95.65217391304347" y1="0" x2="95.65217391304347" y2="140" stroke-width="0.5" stroke="black"/><text x="95.65217391304347" dy="-1.3em" class="graph-grid-text" text-anchor="middle">5</text><line x1="114.78260869565217" y1="0" x2="114.78260869565217" y2="140" stroke-width="0.5" stroke="black"/><line x1="133.91304347826087" y1="0" x2="133.91304347826087" y2="140" stroke-width="0.5" stroke="black"/><line x1="153.04347826086956" y1="0" x2="153.04347826086956" y2="140" stroke-width="0.5" stroke="black"/><line x1="172.17391304347825" y1="0" x2="172.17391304347825" y2="140" stroke-width="0.5" stroke="black"/><line x1="191.30434782608694" y1="0" x2="191.30434782608694" y2="140" stroke-width="0.5" stroke="black"/><text x="191.30434782608694" dy="-1.3em" class="graph-grid-text" text-anchor="middle">10</text><line x1="210.43478260869566" y1="0" x2="210.43478260869566" y2="140" stroke-width="0.5" stroke="black"/><line x1="229.56521739130434" y1="0" x2="229.56521739130434" y2="140" stroke-width="0.5" stroke="black"/><line x1="248.69565217391303" y1="0" x2="248.69565217391303" y2="140" stroke-width="0.5" stroke="black"/><line x1="267.82608695652175" y1="0" x2="267.82608695652175" y2="140" stroke-width="0.5" stroke="black"/><line x1="286.95652173913044" y1="0" x2="286.95652173913044" y2="140" stroke-width="0.5" stroke="black"/><text x="286.95652173913044" dy="-1.3em" class="graph-grid-text" text-anchor="middle">15</text><line x1="306.0869565217391" y1="0" x2="306.0869565217391" y2="140" stroke-width="0.5" stroke="black"/><line x1="325.2173913043478" y1="0" x2="325.2173913043478" y2="140" stroke-width="0.5" stroke="black"/><line x1="344.3478260869565" y1="0" x2="344.3478260869565" y2="140" stroke-width="0.5" stroke="black"/><line x1="363.4782608695652" y1="0" x2="363.4782608695652" y2="140" stroke-width="0.5" stroke="black"/><line x1="382.6086956521739" y1="0" x2="382.6086956521739" y2="140" stroke-width="0.5" stroke="black"/><text x="382.6086956521739" dy="-1.3em" class="graph-grid-text" text-anchor="middle">20</text><line x1="401.7391304347826" y1="0" x2="401.7391304347826" y2="140" stroke-width="0.5" stroke="black"/><line x1="420.8695652173913" y1="0" x2="420.8695652173913" y2="140" stroke-width="0.5" stroke="black"/><line x1="440" y1="0" x2="440" y2="140" stroke-width="0.5" stroke="black"/><line x1="0" y1="0" x2="440" y2="0" stroke-width="0.5" stroke="black"/><text dx="-1.3em" dy=".35em" y="0" class="graph-grid-text" text-anchor="end">0</text><line x1="0" y1="35" x2="440" y2="35" stroke-width="0.5" stroke="black"/><text dx="-1.3em" dy=".35em" y="35" class="graph-grid-text" text-anchor="end">1</text><line x1="0" y1="70" x2="440" y2="70" stroke-width="0.5" stroke="black"/><text dx="-1.3em" dy=".35em" y="70" class="graph-grid-text" text-anchor="end">2</text><line x1="0" y1="105" x2="440" y2="105" stroke-width="0.5" stroke="black"/><text dx="-1.3em" dy=".35em" y="105" class="graph-grid-text" text-anchor="end">3</text><line x1="0" y1="140" x2="440" y2="140" stroke-width="0.5" stroke="black"/><text dx="-1.3em" dy=".35em" y="140" class="graph-grid-text" text-anchor="end">4</text><line x1="286.95652173913044" y1="0" x2="114.78260869565217" y2="35" stroke-width="1.5" stroke="black"/><line x1="114.78260869565217" y1="35" x2="38.26086956521739" y2="70" stroke-width="1.5" stroke="black"/><line x1="38.26086956521739" y1="70" x2="0" y2="105" stroke-width="1.5" stroke="black"/><line x1="38.26086956521739" y1="70" x2="76.52173913043478" y2="105" stroke-width="1.5" stroke="black"/><line x1="76.52173913043478" y1="105" x2="57.391304347826086" y2="140" stroke-width="1.5" stroke="black"/><line x1="76.52173913043478" y1="105" x2="95.65217391304347" y2="140" stroke-width="1.5" stroke="black"/><line x1="114.78260869565217" y1="35" x2="210.43478260869566" y2="70" stroke-width="1.5" stroke="black"/><line x1="286.95652173913044" y1="0" x2="420.8695652173913" y2="35" stroke-width="1.5" stroke="black"/><line x1="420.8695652173913" y1="35" x2="363.4782608695652" y2="70" stroke-width="1.5" stroke="black"/><line x1="363.4782608695652" y1="70" x2="382.6086956521739" y2="105" stroke-width="1.5" stroke="black"/><g transform="translate(0,105)"><circle cx="0" cy="0" r="14" fill="#eeeeee" stroke-width="1.5" stroke="black"/><text dy=".3em" text-anchor="middle" class="graph-node-text">a</text></g><g transform="translate(38.26086956521739,70)"><circle cx="0" cy="0" r="14" fill="#eeeeee" stroke-width="1.5" stroke="black"/><text dy=".3em" text-anchor="middle" class="graph-node-text">c</text></g><g transform="translate(95.65217391304347,140)"><circle cx="0" cy="0" r="14" fill="#eeeeee" stroke-width="1.5" stroke="black"/><text dy=".3em" text-anchor="middle" class="graph-node-text">g</text></g><g transform="translate(76.52173913043478,105)"><circle cx="0" cy="0" r="14" fill="#eeeeee" stroke-width="1.5" stroke="black"/><text dy=".3em" text-anchor="middle" class="graph-node-text">e</text></g><g transform="translate(57.391304347826086,140)"><circle cx="0" cy="0" r="14" fill="#eeeeee" stroke-width="1.5" stroke="black"/><text dy=".3em" text-anchor="middle" class="graph-node-text">d</text></g><g transform="translate(114.78260869565217,35)"><circle cx="0" cy="0" r="14" fill="#eeeeee" stroke-width="1.5" stroke="black"/><text dy=".3em" text-anchor="middle" class="graph-node-text">k</text></g><g transform="translate(210.43478260869566,70)"><circle cx="0" cy="0" r="14" fill="#eeeeee" stroke-width="1.5" stroke="black"/><text dy=".3em" text-anchor="middle" class="graph-node-text">m</text></g><g transform="translate(286.95652173913044,0)"><circle cx="0" cy="0" r="14" fill="#eeeeee" stroke-width="1.5" stroke="black"/><text dy=".3em" text-anchor="middle" class="graph-node-text">n</text></g><g transform="translate(363.4782608695652,70)"><circle cx="0" cy="0" r="14" fill="#eeeeee" stroke-width="1.5" stroke="black"/><text dy=".3em" text-anchor="middle" class="graph-node-text">p</text></g><g transform="translate(420.8695652173913,35)"><circle cx="0" cy="0" r="14" fill="#eeeeee" stroke-width="1.5" stroke="black"/><text dy=".3em" text-anchor="middle" class="graph-node-text">u</text></g><g transform="translate(382.6086956521739,105)"><circle cx="0" cy="0" r="14" fill="#eeeeee" stroke-width="1.5" stroke="black"/><text dy=".3em" text-anchor="middle" class="graph-node-text">q</text></g></g></svg>
