<svg width="400" height="240" version="1.1" baseProfile="full"
     xmlns="http://www.w3.org/2000/svg"><g transform="translate(40,40)"><line x1="0" y1="0" x2="0" y2="180" stroke-width="0.5" stroke="black"/><text x="0" dy="-1.3em" class="graph-grid-text" text-anchor="middle">0</text><line x1="53.333333333333336" y1="0" x2="53.333333333333336" y2="180" stroke-width="0.5" stroke="black"/><text x="53.333333333333336" dy="-1.3em" class="graph-grid-text" text-anchor="middle">1</text><line x1="106.66666666666667" y1="0" x2="106.66666666666667" y2="180" stroke-width="0.5" stroke="black"/><text x="106.66666666666667" dy="-1.3em" class="graph-grid-text" text-anchor="middle">2</text><line x1="160" y1="0" x2="160" y2="180" stroke-width="0.5" stroke="black"/><text x="160" dy="-1.3em" class="graph-grid-text" text-anchor="middle">3</text><line x1="213.33333333333334" y1="0" x2="213.33333333333334" y2="180" stroke-width="0.5" stroke="black"/><text x="213.33333333333334" dy="-1.3em" class="graph-grid-text" text-anchor="middle">4</text><line x1="266.6666666666667" y1="0" x2="266.6666666666667" y2="180" stroke-width="0.5" stroke="black"/><text x="266.6666666666667" dy="-1.3em" class="graph-grid-text" text-anchor="middle">5</text><line x1="320" y1="0" x2="320" y2="180" stroke-width="0.5" stroke="black"/><text x="320" dy="-1.3em" class="graph-grid-text" text-anchor="middle">6</text><line x1="0" y1="0" x2="320" y2="0" stroke-width="0.5" stroke="black"/><text dx="-1.3em" dy=".35em" y="0" class="graph-grid-text" text-anchor="end">0</text><line x1="0" y1="45" x2="320" y2="45" stroke-width="0.5" stroke="black"/><text dx="-1.3em" dy=".35em" y="45" class="graph-grid-text" text-anchor="end">1</text><line x1="0" y1="90" x2="320" y2="90" stroke-width="0.5" stroke="black"/><text dx="-1.3em" dy=".35em" y="90" class="graph-grid-text" text-anchor="end">2</text><line x1="0" y1="135" x2="320" y2="135" stroke-width="0.5" stroke="black"/><text dx="-1.3em" dy=".35em" y="135" class="graph-grid-text" text-anchor="end">3</text><line x1="0" y1="180" x2="320" y2="180" stroke-width="0.5" stroke="black"/><text dx="-1.3em" dy=".35em" y="180" class="graph-grid-text" text-anchor="end">4</text><line x1="213.33333333333334" y1="0" x2="106.66666666666667" y2="45" stroke-width="1.5" stroke="black"/><line x1="106.66666666666667" y1="45" x2="53.333333333333336" y2="90" stroke-width="1.5" stroke="black"/><line x1="53.333333333333336" y1="90" x2="0" y2="135" stroke-width="1.5" stroke="black"/><line x1="53.333333333333336" y1="90" x2="106.66666666666667" y2="135" stroke-width="1.5" stroke="black"/><line x1="106.66666666666667" y1="135" x2="53.333333333333336" y2="180" stroke-width="1.5" stroke="black"/><line x1="106.66666666666667" y1="135" x2="160" y2="180" stroke-width="1.5" stroke="black"/><line x1="106.66666666666667" y1="45" x2="160" y2="90" stroke-width="1.5" stroke="black"/><line x1="213.33333333333334" y1="0" x2="320" y2="45" stroke-width="1.5" stroke="black"/><line x1="320" y1="45" x2="266.6666666666667" y2="90" stroke-width="1.5" stroke="black"/><line x1="266.6666666666667" y1="90" x2="320" y2="135" stroke-width="1.5" stroke="black"/><g transform="translate(0,135)"><circle cx="0" cy="0" r="15.238095238095239" fill="#eeeeee" stroke-width="1.5" stroke="black"/><text dy=".3em" text-anchor="middle" class="graph-node-text">a</text></g><g transform="translate(53.333333333333336,90)"><circle cx="0" cy="0" r="15.238095238095239" fill="#eeeeee" stroke-width="1.5" stroke="black"/><text dy=".3em" text-anchor="middle" class="graph-node-text">c</text></g><g transform="translate(160,180)"><circle cx="0" cy="0" r="15.238095238095239" fill="#eeeeee" stroke-width="1.5" stroke="black"/><text dy=".3em" text-anchor="middle" class="graph-node-text">g</text></g><g transform="translate(106.66666666666667,135)"><circle cx="0" cy="0" r="15.238095238095239" fill="#eeeeee" stroke-width="1.5" stroke="black"/><text dy=".3em" text-anchor="middle" class="graph-node-text">e</text></g><g transform="translate(53.333333333333336,180)"><circle cx="0" cy="0" r="15.238095238095239" fill="#eeeeee" stroke-width="1.5" stroke="black"/><text dy=".3em" text-anchor="middle" class="graph-node-text">d</text></g><g transform="translate(106.66666666666667,45)"><circle cx="0" cy="0" r="15.238095238095239" fill="#eeeeee" stroke-width="1.5" stroke="black"/><text dy=".3em" text-anchor="middle" class="graph-node-text">k</text></g><g transform="translate(160,90)"><circle cx="0" cy="0" r="15.238095238095239" fill="#eeeeee" stroke-width="1.5" stroke="black"/><text dy=".3em" text-anchor="middle" class="graph-node-text">m</text></g><g transform="translate(213.33333333333334,0)"><circle cx="0" cy="0" r="15.238095238095239" fill="#eeeeee" stroke-width="1.5" stroke="black"/><text dy=".3em" text-anchor="middle" class="graph-node-text">n</text></g><g transform="translate(266.6666666666667,90)"><circle cx="0" cy="0" r="15.238095238095239" fill="#eeeeee" stroke-width="1.5" stroke="black"/><text dy=".3em" text-anchor="middle" class="graph-node-text">p</text></g><g transform="translate(320,45)"><circle cx="0" cy="0" r="15.238095238095239" fill="#eeeeee" stroke-width="1.5" stroke="black"/><text dy=".3em" text-anchor="middle" class="graph-node-text">u</text></g><g transform="translate(320,135)"><circle cx="0" cy="0" r="15.238095238095239" fill="#eeeeee" stroke-width="1.5" stroke="black"/><text dy=".3em" text-anchor="middle" class="graph-node-text">q</text></g></g></svg>
